<?xml version="1.0" encoding="utf-8"?>
<!-- Generator: Adobe Illustrator 16.0.0, SVG Export Plug-In . SVG Version: 6.00 Build 0)  -->
<!DOCTYPE svg PUBLIC "-//W3C//DTD SVG 1.1//EN" "http://www.w3.org/Graphics/SVG/1.1/DTD/svg11.dtd">
<svg version="1.1" id="Layer_1" xmlns="http://www.w3.org/2000/svg" xmlns:xlink="http://www.w3.org/1999/xlink" x="0px" y="0px"
	 width="85.667px" height="84.905px" viewBox="0 0 85.667 84.905" enable-background="new 0 0 85.667 84.905" xml:space="preserve">
<g>
	<defs>
		<rect id="SVGID_1_" x="-265.002" width="615.694" height="84.905"/>
	</defs>
	<clipPath id="SVGID_2_">
		<use xlink:href="#SVGID_1_"  overflow="visible"/>
	</clipPath>
	
		<path clip-path="url(#SVGID_2_)" fill="none" stroke="#FFFFFF" stroke-width="2" stroke-linecap="round" stroke-linejoin="round" stroke-miterlimit="10" d="
		M-71.933,49.905c0,4.418-3.582,8-8,8h-18c-4.418,0-8-3.582-8-8v-13c0-4.418,3.582-8,8-8h18c4.418,0,8,3.582,8,8V49.905z"/>
	
		<line clip-path="url(#SVGID_2_)" fill="none" stroke="#FFFFFF" stroke-width="2" stroke-linecap="round" stroke-linejoin="round" stroke-miterlimit="10" x1="-105.933" y1="36.905" x2="-71.933" y2="36.905"/>
	
		<line clip-path="url(#SVGID_2_)" fill="none" stroke="#FFFFFF" stroke-width="2" stroke-linecap="round" stroke-linejoin="round" stroke-miterlimit="10" x1="-97.933" y1="32.905" x2="-97.933" y2="25.905"/>
	
		<line clip-path="url(#SVGID_2_)" fill="none" stroke="#FFFFFF" stroke-width="2" stroke-linecap="round" stroke-linejoin="round" stroke-miterlimit="10" x1="-79.933" y1="32.905" x2="-79.933" y2="25.905"/>
	
		<circle clip-path="url(#SVGID_2_)" fill="none" stroke="#FFFFFF" stroke-width="2" stroke-linecap="round" stroke-linejoin="round" stroke-miterlimit="10" cx="-90.323" cy="46.536" r="5.304"/>
	
		<line clip-path="url(#SVGID_2_)" fill="none" stroke="#FFFFFF" stroke-width="2" stroke-linecap="round" stroke-linejoin="round" stroke-miterlimit="10" x1="-86.344" y1="50.513" x2="-82.366" y2="54.492"/>
	
		<circle clip-path="url(#SVGID_2_)" fill="none" stroke="#FFFFFF" stroke-width="2" stroke-linecap="round" stroke-linejoin="round" stroke-miterlimit="10" stroke-dasharray="84,4,2,5,6,1" cx="-89.803" cy="42.183" r="41.183"/>
</g>
<g>
	<defs>
		<rect id="SVGID_3_" x="-265.002" width="615.694" height="84.905"/>
	</defs>
	<clipPath id="SVGID_4_">
		<use xlink:href="#SVGID_3_"  overflow="visible"/>
	</clipPath>
	
		<circle clip-path="url(#SVGID_4_)" fill="none" stroke="#FFFFFF" stroke-width="2" stroke-linecap="round" stroke-linejoin="round" stroke-miterlimit="10" stroke-dasharray="84,4" cx="-222.82" cy="42.183" r="41.183"/>
	
		<path clip-path="url(#SVGID_4_)" fill="none" stroke="#FFFFFF" stroke-width="2" stroke-linecap="round" stroke-linejoin="round" stroke-miterlimit="10" d="
		M-222.82,59.608c0,0,13.236-10.548,13.236-21.178c0-7.31-5.926-13.237-13.236-13.237s-13.236,5.927-13.236,13.237
		C-236.056,49.06-222.82,59.608-222.82,59.608z"/>
	
		<circle clip-path="url(#SVGID_4_)" fill="none" stroke="#FFFFFF" stroke-width="2" stroke-linecap="round" stroke-linejoin="round" stroke-miterlimit="10" cx="-222.82" cy="38.43" r="5.294"/>
</g>
<g>
	<defs>
		<rect id="SVGID_5_" x="-265.002" width="615.694" height="84.905"/>
	</defs>
	<clipPath id="SVGID_6_">
		<use xlink:href="#SVGID_5_"  overflow="visible"/>
	</clipPath>
	
		<circle clip-path="url(#SVGID_6_)" fill="none" stroke="#FFFFFF" stroke-width="2" stroke-linecap="round" stroke-linejoin="round" stroke-miterlimit="10" stroke-dasharray="84,8,1,6" cx="42.749" cy="42.183" r="41.182"/>
	
		<path clip-path="url(#SVGID_6_)" fill="none" stroke="#FFFFFF" stroke-width="2" stroke-linecap="round" stroke-linejoin="round" stroke-miterlimit="10" d="
		M55.46,26.241H41.635h-2.296h-8.525c-0.665,0-1.204,0.538-1.204,1.201v6.012c0,0.665,0.539,1.202,1.204,1.202h8.908h3.116H55.46
		c0.663,0,6.012-4.207,6.012-4.207S56.124,26.241,55.46,26.241z"/>
	
		<path clip-path="url(#SVGID_6_)" fill="none" stroke="#FFFFFF" stroke-width="2" stroke-linecap="round" stroke-linejoin="round" stroke-miterlimit="10" d="
		M55.46,38.864H30.813c-0.665,0-5.411,4.208-5.411,4.208s4.746,4.207,5.411,4.207H55.46c0.663,0,1.202-0.539,1.202-1.202v-6.012
		C56.663,39.403,56.124,38.864,55.46,38.864z"/>
	
		<line clip-path="url(#SVGID_6_)" fill="none" stroke="#FFFFFF" stroke-width="2" stroke-linecap="round" stroke-linejoin="round" stroke-miterlimit="10" x1="41.032" y1="56.874" x2="41.032" y2="47.28"/>
	
		<line clip-path="url(#SVGID_6_)" fill="none" stroke="#FFFFFF" stroke-width="2" stroke-linecap="round" stroke-linejoin="round" stroke-miterlimit="10" x1="45.241" y1="47.28" x2="45.241" y2="57.684"/>
	
		<line clip-path="url(#SVGID_6_)" fill="none" stroke="#FFFFFF" stroke-width="2" stroke-linecap="round" stroke-linejoin="round" stroke-miterlimit="10" x1="45.241" y1="34.656" x2="45.241" y2="38.863"/>
	
		<path clip-path="url(#SVGID_6_)" fill="none" stroke="#FFFFFF" stroke-width="2" stroke-linecap="round" stroke-linejoin="round" stroke-miterlimit="10" d="
		M41.032,26.239v-1.803c0-0.664,0.539-1.202,1.203-1.202h1.803c0.665,0,1.204,0.538,1.204,1.202v1.803"/>
	
		<line clip-path="url(#SVGID_6_)" fill="none" stroke="#FFFFFF" stroke-width="2" stroke-linecap="round" stroke-linejoin="round" stroke-miterlimit="10" x1="41.032" y1="38.863" x2="41.032" y2="34.656"/>
	
		<path clip-path="url(#SVGID_6_)" fill="none" stroke="#FFFFFF" stroke-width="2" stroke-linecap="round" stroke-linejoin="round" stroke-miterlimit="10" d="
		M26.771,56.828c0,0,1.679-2.354,4.838,0c3.16,2.352,4.839,0,4.839,0s1.714-2.386,4.84,0c3.124,2.384,4.838,0,4.838,0
		s1.747-2.285,4.84,0c3.09,2.283,4.837,0,4.837,0s2.018-2.386,4.302,0"/>
	
		<path clip-path="url(#SVGID_6_)" fill="none" stroke="#FFFFFF" stroke-width="2" stroke-linecap="round" stroke-linejoin="round" stroke-miterlimit="10" d="
		M26.771,60.507c0,0,1.679-2.354,4.838,0c3.16,2.351,4.839,0,4.839,0s1.714-2.385,4.84,0c3.124,2.384,4.838,0,4.838,0
		s1.747-2.286,4.84,0c3.09,2.284,4.837,0,4.837,0s2.018-2.385,4.302,0"/>
	
		<circle clip-path="url(#SVGID_6_)" fill="none" stroke="#FFFFFF" stroke-width="2" stroke-linecap="round" stroke-linejoin="round" stroke-miterlimit="10" stroke-dasharray="55,2,12,2,2,4" cx="308.509" cy="42.722" r="41.182"/>
	<path clip-path="url(#SVGID_6_)" fill="#FFFFFF" d="M323.598,41.875c-1.19-5.382-4.201-9.625-5.083-10.634
		c-1.659-2.034-3.055-2.383-3.055-2.383s0.78,1.801,0.905,3.842c0.124,2.041-0.199,2.746-0.897,4.53
		c-0.56-1.923-3.441-8.038-5.452-11.095c-1.898-2.886-4.584-5.972-7.358-7.701c0.058,0.601,0.362,2.139,0.467,2.914l0.26,2.185
		c0.502,4.216-0.92,11.759-2.968,17.065c-0.313-1.777-0.584-2.92-0.911-4.452c-0.546-2.553-2.305-4.104-2.305-4.104
		s0.042,1.592-0.376,4.147c-0.422,2.571-1.136,4.118-1.948,6.165c-0.705,1.776-1.436,3.612-1.771,5.664
		c-0.816,5.019,0.284,8.81,3.592,12.322l0.61,0.608c0.364,0.35,0.762,0.714,1.17,1.059c0.532,0.454,1.773,1.396,3.608,2.081
		c0.203,0.123,0.363,0.213,0.438,0.245c1.698,0.742,3.598,1.021,5.44,1.021c1.61,0,3.265-0.232,4.792-0.785
		c2.339-0.598,4.26-2.107,6.46-4.59C324.764,53.728,324.662,46.683,323.598,41.875 M317.21,58.201
		c-0.784,0.885-2.457,3.39-5.733,3.877c-1.069,0.252-2.257,0.396-3.514,0.396c-3.005,0-5.631-0.807-7.1-2.013
		c-0.306-0.213-0.528-0.396-0.651-0.5c-0.37-0.313-0.726-0.641-1.033-0.934l-0.557-0.557c-2.691-2.856-3.551-5.856-2.874-10.025
		c0.288-1.763,0.935-3.386,1.617-5.104c0.187-0.468,0.373-0.939,0.556-1.416c0.193,1.279,0.319,2.504,0.365,3.394l0.212,4.11
		l2.249-3.449c2.694-4.134,5.004-12.73,5.359-19.015c0.033-0.591,0.01-1.173-0.048-1.767c3.615,5.245,6.926,12.621,7.616,15.927
		l0.543,2.597l1.768-1.978c0.889-0.992,2.039-3.33,2.663-5.619c0.851,1.604,1.771,3.781,2.333,6.328
		C321.912,46.653,322.01,52.794,317.21,58.201"/>
</g>
</svg>
